HIERARCHY
ROOT Hips
{
 OFFSET 0.000000 0.000000 0.000000
 CHANNELS 6 Xposition Yposition Zposition Yrotation Xrotation Zrotation
 JOINT Chest
 {
  OFFSET 0.000000 9.585900 0.002600
  CHANNELS 3 Yrotation Xrotation Zrotation
  JOINT Chest2
  {
   OFFSET 0.000000 9.601200 -0.005300
   CHANNELS 3 Yrotation Xrotation Zrotation
   JOINT Chest3
   {
    OFFSET 0.000000 9.561800 0.000000
    CHANNELS 3 Yrotation Xrotation Zrotation
    JOINT Chest4
    {
     OFFSET 0.000000 9.552100 0.000000
     CHANNELS 3 Yrotation Xrotation Zrotation
     JOINT Neck
     {
      OFFSET 0.000000 14.453000 0.000000
      CHANNELS 3 Yrotation Xrotation Zrotation
      JOINT Head
      {
       OFFSET 0.000000 8.936500 -0.011300
       CHANNELS 3 Yrotation Xrotation Zrotation
       End Site
       {
        OFFSET 0.000000 17.073600 -0.006000
       }
      }
     }
     JOINT RightCollar
     {
      OFFSET -2.921100 9.558500 0.000000
      CHANNELS 3 Yrotation Xrotation Zrotation
      JOINT RightShoulder
      {
       OFFSET -13.519700 0.000000 0.000000
       CHANNELS 3 Yrotation Xrotation Zrotation
       JOINT RightElbow
       {
        OFFSET 0.000000 -29.696600 0.000000
        CHANNELS 3 Yrotation Xrotation Zrotation
        JOINT RightWrist
        {
         OFFSET 0.000000 -24.004700 0.000000
         CHANNELS 3 Yrotation Xrotation Zrotation
         End Site
         {
          OFFSET 0.000000 -17.728500 0.000000
         }
        }
       }
      }
     }
     JOINT LeftCollar
     {
      OFFSET 2.921100 9.558500 0.000000
      CHANNELS 3 Yrotation Xrotation Zrotation
      JOINT LeftShoulder
      {
       OFFSET 13.519700 0.000000 0.000000
       CHANNELS 3 Yrotation Xrotation Zrotation
       JOINT LeftElbow
       {
        OFFSET 0.000000 -29.696600 0.000000
        CHANNELS 3 Yrotation Xrotation Zrotation
        JOINT LeftWrist
        {
         OFFSET 0.000000 -24.004700 0.000000
         CHANNELS 3 Yrotation Xrotation Zrotation
         End Site
         {
          OFFSET 0.000000 -17.728500 0.000000
         }
        }
       }
      }
     }
    }
   }
  }
 }
 JOINT RightHip
 {
  OFFSET -7.771700 -0.012900 -0.001300
  CHANNELS 3 Yrotation Xrotation Zrotation
  JOINT RightKnee
  {
   OFFSET 0.000000 -40.869800 0.001200
   CHANNELS 3 Yrotation Xrotation Zrotation
   JOINT RightAnkle
   {
    OFFSET 0.000000 -39.717900 0.002100
    CHANNELS 3 Yrotation Xrotation Zrotation
    JOINT RightToe
    {
     OFFSET 0.000000 -4.965400 11.033500
     CHANNELS 3 Yrotation Xrotation Zrotation
     End Site
     {
      OFFSET 0.000000 -1.423100 5.872300
     }
    }
   }
  }
 }
 JOINT LeftHip
 {
  OFFSET 7.771700 -0.012900 -0.001300
  CHANNELS 3 Yrotation Xrotation Zrotation
  JOINT LeftKnee
  {
   OFFSET 0.000000 -40.869800 0.001200
   CHANNELS 3 Yrotation Xrotation Zrotation
   JOINT LeftAnkle
   {
    OFFSET 0.000000 -39.717900 0.002100
    CHANNELS 3 Yrotation Xrotation Zrotation
    JOINT LeftToe
    {
     OFFSET 0.000000 -4.965400 11.033500
     CHANNELS 3 Yrotation Xrotation Zrotation
     End Site
     {
      OFFSET 0.000000 -1.423100 5.872300
     }
    }
   }
  }
 }
}
MOTION
Frames: 6
Frame Time: 0.008333
0.000000 85.388000 0.000000 0.000000 -5.767877 0.000000 0.000000 11.653817 0.000000 0.000000 -5.885947 0.000000 0.000000 -0.000000 0.000000 0.000000 -0.000000 0.000000 0.000000 12.528835 0.000000 0.000000 0.711642 0.000000 0.000000 -0.000000 0.000000 0.000000 0.000000 -90.000000 0.000000 -2.309062 0.000000 0.000000 2.309062 0.000000 0.000000 -0.000000 0.000000 0.000000 -0.000000 90.000000 0.000000 -2.309062 0.000000 0.000000 2.309062 0.000000 0.000000 8.520406 0.000000 0.000000 1.905762 0.000000 -0.000000 -4.658285 0.000000 0.000000 -0.000000 0.000000 0.000000 8.520406 0.000000 0.000000 1.905762 0.000000 -0.000000 -4.658285 0.000000 0.000000 -0.000000 0.000000
-253.655967 56.647287 155.075519 178.951085 -45.358765 -1.069236 0.363747 26.958233 1.935822 0.030487 4.671130 0.467856 0.072162 7.428931 0.748866 0.512262 22.041892 2.330468 -7.548526 16.549462 -1.709199 -13.402848 -4.930624 -0.544666 2.985771 -1.161832 -0.739849 15.420767 -20.087622 -20.053404 137.408168 -73.172476 -104.482503 14.098756 -12.214884 -47.635724 -8.368111 -1.484506 -3.757482 3.739054 -14.360165 2.674102 -128.588853 -53.179850 102.646558 -11.082929 -16.449038 25.024254 2.630373 -30.802764 -4.904213 -7.629307 61.282498 -11.756131 6.117175 30.004868 3.784778 0.019139 -13.024129 5.639043 -10.269583 -29.408816 -2.389423 31.797155 63.237248 31.963855 -11.828549 11.859447 -6.335021 -0.075129 0.257852 -0.028761
-253.657961 56.652365 155.068218 178.981305 -45.372742 -1.069880 0.332913 26.976487 1.913374 0.032120 4.682607 0.469341 0.075045 7.430028 0.750767 0.508870 22.041689 2.328288 -7.531329 16.570548 -1.703195 -13.377970 -4.894183 -0.543484 2.987424 -1.163795 -0.740944 15.437296 -20.096657 -20.058752 137.389132 -73.174654 -104.472590 14.101636 -12.208029 -47.630195 -8.364446 -1.488322 -3.761967 3.735187 -14.365627 2.676864 -128.579966 -53.180061 102.648497 -11.083800 -16.446537 25.025009 2.631355 -30.778693 -4.921686 -7.547703 61.316907 -11.695788 6.074432 29.932334 3.813275 0.011869 -13.024762 5.627888 -10.267923 -29.395446 -2.421499 31.781577 63.237850 31.954215 -11.833649 11.855590 -6.338441 -0.067383 0.260561 -0.025307
-253.656449 56.655564 155.062642 178.984855 -45.366168 -1.069468 0.335537 26.985099 1.917212 0.032093 4.683173 0.469923 0.072967 7.430422 0.748660 0.512587 22.042465 2.334030 -7.523903 16.589482 -1.703213 -13.356664 -4.857253 -0.541806 2.985090 -1.149901 -0.752628 15.441588 -20.126419 -20.061873 137.406584 -73.174321 -104.481336 14.105958 -12.196630 -47.629178 -8.368782 -1.500170 -3.767453 3.742827 -14.360791 2.671849 -128.576479 -53.178190 102.652190 -11.082307 -16.446563 25.024995 2.639173 -30.774172 -4.919854 -7.505847 61.335898 -11.660924 6.046382 29.862824 3.833659 0.020940 -13.042799 5.609823 -10.265202 -29.400514 -2.425912 31.774291 63.239830 31.948620 -11.834778 11.849336 -6.337656 -0.063463 0.265247 -0.025262
-253.652243 56.657256 155.058548 178.957076 -45.343542 -1.059595 0.366624 26.978274 1.934899 0.031949 4.683296 0.469795 0.068935 7.428820 0.745653 0.516104 22.044899 2.335430 -7.514704 16.606828 -1.699734 -13.337408 -4.819783 -0.540556 2.980575 -1.160150 -0.753558 15.449641 -20.132951 -20.064149 137.402830 -73.173530 -104.479228 14.106350 -12.195361 -47.620664 -8.369917 -1.511354 -3.768319 3.768455 -14.347211 2.668151 -128.608995 -53.174217 102.674266 -11.083373 -16.452557 25.023311 2.658936 -30.783439 -4.901202 -7.516783 61.334477 -11.671810 6.045170 29.799552 3.860181 0.017649 -13.000972 5.587000 -10.245285 -29.416102 -2.414931 31.764146 63.237628 31.945444 -11.834933 11.836545 -6.337648 -0.061895 0.276246 -0.025458
-253.649042 56.661526 155.051909 178.961570 -45.340026 -1.063169 0.361909 26.990530 1.932093 0.032545 4.683098 0.469924 0.075073 7.426312 0.747865 0.522710 22.057414 2.335993 -7.511612 16.606493 -1.692695 -13.318140 -4.774457 -0.542323 2.971572 -1.178674 -0.751916 15.484729 -20.138500 -20.071334 137.369752 -73.170010 -104.464445 14.104436 -12.183977 -47.624783 -8.375684 -1.521912 -3.765230 3.778213 -14.352530 2.669950 -128.628421 -53.173223 102.686843 -11.069489 -16.432902 25.033005 2.659420 -30.775981 -4.891288 -7.495213 61.350342 -11.653034 6.011931 29.742912 3.863057 0.029426 -12.999518 5.575458 -10.240578 -29.414908 -2.420188 31.760549 63.233551 31.950463 -11.842193 11.827818 -6.342227 -0.057789 0.282982 -0.023950
